<mxfile host="65bd71144e" modified="2020-11-05T03:40:19.035Z" agent="5.0 (Macintosh; Intel Mac OS X 10_15_7) AppleWebKit/537.36 (KHTML, like Gecko) Code/1.50.1 Chrome/83.0.4103.122 Electron/9.2.1 Safari/537.36" etag="XnrA8gOEkMrq_1O3tQ65" version="13.6.5">
    <diagram id="ikjxTRKU4ogdxF5lyF3i" name="第 1 页">
        <mxGraphModel dx="1139" dy="599" grid="1" gridSize="10" guides="1" tooltips="1" connect="1" arrows="1" fold="1" page="1" pageScale="1" pageWidth="827" pageHeight="1169" background="#DAD2D8" math="0" shadow="0">
            <root>
                <mxCell id="0"/>
                <mxCell id="1" parent="0"/>
                <mxCell id="3" value="" style="fontColor=#143642;verticalAlign=top;verticalLabelPosition=bottom;labelPosition=center;align=center;html=1;outlineConnect=0;fillColor=#FAE5C7;strokeColor=#0F8B8D;gradientDirection=north;strokeWidth=2;shape=mxgraph.networks.server;" parent="1" vertex="1">
                    <mxGeometry x="380" y="280" width="90" height="100" as="geometry"/>
                </mxCell>
                <mxCell id="4" value="" style="fontColor=#143642;verticalAlign=top;verticalLabelPosition=bottom;labelPosition=center;align=center;html=1;outlineConnect=0;fillColor=#FAE5C7;strokeColor=#0F8B8D;gradientDirection=north;strokeWidth=2;shape=mxgraph.networks.wireless_modem;" parent="1" vertex="1">
                    <mxGeometry x="460" y="140" width="100" height="70" as="geometry"/>
                </mxCell>
                <mxCell id="5" value="" style="fontColor=#143642;verticalAlign=top;verticalLabelPosition=bottom;labelPosition=center;align=center;html=1;outlineConnect=0;fillColor=#FAE5C7;strokeColor=#0F8B8D;gradientDirection=north;strokeWidth=2;shape=mxgraph.networks.router;" parent="1" vertex="1">
                    <mxGeometry x="220" y="180" width="100" height="30" as="geometry"/>
                </mxCell>
                <mxCell id="6" value="" style="fontColor=#143642;verticalAlign=top;verticalLabelPosition=bottom;labelPosition=center;align=center;html=1;outlineConnect=0;fillColor=#FAE5C7;strokeColor=#0F8B8D;gradientDirection=north;strokeWidth=2;shape=mxgraph.networks.modem;" parent="1" vertex="1">
                    <mxGeometry x="220" y="90" width="100" height="30" as="geometry"/>
                </mxCell>
                <mxCell id="7" value="" style="fontColor=#143642;verticalAlign=top;verticalLabelPosition=bottom;labelPosition=center;align=center;html=1;outlineConnect=0;fillColor=#FAE5C7;strokeColor=#0F8B8D;gradientDirection=north;strokeWidth=2;shape=mxgraph.networks.virtual_pc;" parent="1" vertex="1">
                    <mxGeometry x="190" y="471" width="90" height="60" as="geometry"/>
                </mxCell>
                <mxCell id="8" value="" style="fontColor=#143642;verticalAlign=top;verticalLabelPosition=bottom;labelPosition=center;align=center;html=1;outlineConnect=0;fillColor=#FAE5C7;strokeColor=#0F8B8D;gradientDirection=north;strokeWidth=2;shape=mxgraph.networks.virtual_server;" parent="1" vertex="1">
                    <mxGeometry x="390" y="471" width="70" height="70" as="geometry"/>
                </mxCell>
                <mxCell id="10" value="" style="fontColor=#143642;verticalAlign=top;verticalLabelPosition=bottom;labelPosition=center;align=center;html=1;outlineConnect=0;fillColor=#FAE5C7;strokeColor=#0F8B8D;gradientDirection=north;strokeWidth=2;shape=mxgraph.networks.virtual_server;" parent="1" vertex="1">
                    <mxGeometry x="490" y="471" width="70" height="70" as="geometry"/>
                </mxCell>
                <mxCell id="11" value="" style="fontColor=#143642;verticalAlign=top;verticalLabelPosition=bottom;labelPosition=center;align=center;html=1;outlineConnect=0;fillColor=#FAE5C7;strokeColor=#0F8B8D;gradientDirection=north;strokeWidth=2;shape=mxgraph.networks.mobile;" parent="1" vertex="1">
                    <mxGeometry x="540" y="260" width="40" height="90" as="geometry"/>
                </mxCell>
                <mxCell id="12" value="" style="html=1;outlineConnect=0;fillColor=#FAE5C7;strokeColor=#A8201A;gradientDirection=north;strokeWidth=2;shape=mxgraph.networks.comm_link_edge;html=1;labelBackgroundColor=#DAD2D8;fontColor=#143642;" parent="1" source="5" target="6" edge="1">
                    <mxGeometry width="100" height="100" relative="1" as="geometry">
                        <mxPoint x="130" y="290" as="sourcePoint"/>
                        <mxPoint x="230" y="190" as="targetPoint"/>
                    </mxGeometry>
                </mxCell>
                <mxCell id="14" value="" style="html=1;outlineConnect=0;fillColor=#FAE5C7;strokeColor=#A8201A;gradientDirection=north;strokeWidth=2;shape=mxgraph.networks.comm_link_edge;html=1;entryX=1;entryY=0.5;entryDx=0;entryDy=0;entryPerimeter=0;labelBackgroundColor=#DAD2D8;fontColor=#143642;" parent="1" source="4" target="5" edge="1">
                    <mxGeometry width="100" height="100" relative="1" as="geometry">
                        <mxPoint x="100" y="300" as="sourcePoint"/>
                        <mxPoint x="200" y="200" as="targetPoint"/>
                        <Array as="points">
                            <mxPoint x="410" y="210"/>
                            <mxPoint x="470" y="179"/>
                        </Array>
                    </mxGeometry>
                </mxCell>
                <mxCell id="16" value="" style="html=1;outlineConnect=0;fillColor=#FAE5C7;strokeColor=#A8201A;gradientDirection=north;strokeWidth=2;shape=mxgraph.networks.comm_link_edge;html=1;exitX=0.5;exitY=0;exitDx=0;exitDy=0;exitPerimeter=0;labelBackgroundColor=#DAD2D8;fontColor=#143642;" parent="1" source="3" target="4" edge="1">
                    <mxGeometry width="100" height="100" relative="1" as="geometry">
                        <mxPoint x="520" y="340" as="sourcePoint"/>
                        <mxPoint x="620" y="240" as="targetPoint"/>
                    </mxGeometry>
                </mxCell>
                <mxCell id="17" value="" style="html=1;outlineConnect=0;fillColor=#FAE5C7;strokeColor=#A8201A;gradientDirection=north;strokeWidth=2;shape=mxgraph.networks.comm_link_edge;html=1;exitX=0.5;exitY=0;exitDx=0;exitDy=0;exitPerimeter=0;labelBackgroundColor=#DAD2D8;fontColor=#143642;" parent="1" source="11" target="4" edge="1">
                    <mxGeometry width="100" height="100" relative="1" as="geometry">
                        <mxPoint x="680" y="280" as="sourcePoint"/>
                        <mxPoint x="780" y="180" as="targetPoint"/>
                    </mxGeometry>
                </mxCell>
                <mxCell id="20" value="电信入户光猫" style="text;html=1;strokeColor=none;fillColor=none;align=center;verticalAlign=middle;whiteSpace=wrap;fontColor=#143642;" parent="1" vertex="1">
                    <mxGeometry x="220" y="70" width="80" height="20" as="geometry"/>
                </mxCell>
                <mxCell id="21" value="软路由openwrt" style="text;html=1;strokeColor=none;fillColor=none;align=center;verticalAlign=middle;whiteSpace=wrap;fontColor=#143642;" parent="1" vertex="1">
                    <mxGeometry x="280" y="160" width="90" height="20" as="geometry"/>
                </mxCell>
                <mxCell id="23" value="普通路由器（桥接模式）" style="text;html=1;strokeColor=none;fillColor=none;align=center;verticalAlign=middle;whiteSpace=wrap;fontColor=#143642;" parent="1" vertex="1">
                    <mxGeometry x="460" y="165" width="140" height="20" as="geometry"/>
                </mxCell>
                <mxCell id="24" value="T630服务器Openstack" style="text;html=1;strokeColor=none;fillColor=none;align=center;verticalAlign=middle;whiteSpace=wrap;fontColor=#143642;" parent="1" vertex="1">
                    <mxGeometry x="360" y="260" width="130" height="20" as="geometry"/>
                </mxCell>
                <mxCell id="25" value="" style="endArrow=none;html=1;exitX=0.5;exitY=0;exitDx=0;exitDy=0;exitPerimeter=0;labelBackgroundColor=#DAD2D8;strokeColor=#A8201A;fontColor=#143642;" parent="1" source="7" target="42" edge="1">
                    <mxGeometry width="50" height="50" relative="1" as="geometry">
                        <mxPoint x="310" y="420" as="sourcePoint"/>
                        <mxPoint x="350" y="370" as="targetPoint"/>
                        <Array as="points">
                            <mxPoint x="380" y="410"/>
                        </Array>
                    </mxGeometry>
                </mxCell>
                <mxCell id="27" value="" style="endArrow=none;html=1;entryX=1;entryY=0.5;entryDx=0;entryDy=0;entryPerimeter=0;exitX=0.5;exitY=0;exitDx=0;exitDy=0;exitPerimeter=0;labelBackgroundColor=#DAD2D8;strokeColor=#A8201A;fontColor=#143642;" parent="1" source="10" target="42" edge="1">
                    <mxGeometry width="50" height="50" relative="1" as="geometry">
                        <mxPoint x="510" y="430" as="sourcePoint"/>
                        <mxPoint x="560" y="380" as="targetPoint"/>
                        <Array as="points">
                            <mxPoint x="425" y="410"/>
                        </Array>
                    </mxGeometry>
                </mxCell>
                <mxCell id="28" value="虚拟机k8s集群" style="text;html=1;strokeColor=none;fillColor=none;align=center;verticalAlign=middle;whiteSpace=wrap;fontColor=#143642;" parent="1" vertex="1">
                    <mxGeometry x="380" y="451" width="90" height="20" as="geometry"/>
                </mxCell>
                <mxCell id="29" value="虚拟机ceph集群" style="text;html=1;strokeColor=none;fillColor=none;align=center;verticalAlign=middle;whiteSpace=wrap;fontColor=#143642;" parent="1" vertex="1">
                    <mxGeometry x="481" y="451" width="98" height="20" as="geometry"/>
                </mxCell>
                <mxCell id="30" value="win10" style="text;html=1;strokeColor=none;fillColor=none;align=center;verticalAlign=middle;whiteSpace=wrap;fontColor=#143642;" parent="1" vertex="1">
                    <mxGeometry x="190" y="451" width="40" height="20" as="geometry"/>
                </mxCell>
                <mxCell id="31" value="手机" style="text;html=1;strokeColor=none;fillColor=none;align=center;verticalAlign=middle;whiteSpace=wrap;fontColor=#143642;" parent="1" vertex="1">
                    <mxGeometry x="560" y="240" width="40" height="20" as="geometry"/>
                </mxCell>
                <mxCell id="33" value="" style="fontColor=#143642;verticalAlign=top;verticalLabelPosition=bottom;labelPosition=center;align=center;html=1;outlineConnect=0;fillColor=#FAE5C7;strokeColor=#0F8B8D;gradientDirection=north;strokeWidth=2;shape=mxgraph.networks.virtual_server;" parent="1" vertex="1">
                    <mxGeometry x="579" y="471" width="70" height="70" as="geometry"/>
                </mxCell>
                <mxCell id="34" value="" style="endArrow=none;html=1;exitX=0.25;exitY=1;exitDx=0;exitDy=0;labelBackgroundColor=#DAD2D8;strokeColor=#A8201A;fontColor=#143642;" parent="1" source="35" target="42" edge="1">
                    <mxGeometry width="50" height="50" relative="1" as="geometry">
                        <mxPoint x="600" y="420" as="sourcePoint"/>
                        <mxPoint x="650" y="370" as="targetPoint"/>
                        <Array as="points">
                            <mxPoint x="400" y="410"/>
                        </Array>
                    </mxGeometry>
                </mxCell>
                <mxCell id="35" value="FreeNas" style="text;html=1;strokeColor=none;fillColor=none;align=center;verticalAlign=middle;whiteSpace=wrap;fontColor=#143642;" parent="1" vertex="1">
                    <mxGeometry x="600" y="451" width="40" height="20" as="geometry"/>
                </mxCell>
                <mxCell id="36" value="" style="fontColor=#143642;verticalAlign=top;verticalLabelPosition=bottom;labelPosition=center;align=center;html=1;outlineConnect=0;fillColor=#FAE5C7;strokeColor=#0F8B8D;gradientDirection=north;strokeWidth=2;shape=mxgraph.networks.virtual_server;" parent="1" vertex="1">
                    <mxGeometry x="300" y="471" width="70" height="70" as="geometry"/>
                </mxCell>
                <mxCell id="41" value="Ubuntu" style="text;html=1;strokeColor=none;fillColor=none;align=center;verticalAlign=middle;whiteSpace=wrap;fontColor=#143642;" parent="1" vertex="1">
                    <mxGeometry x="300" y="451" width="40" height="20" as="geometry"/>
                </mxCell>
                <mxCell id="45" value="" style="endArrow=none;html=1;entryX=0.5;entryY=1;entryDx=0;entryDy=0;entryPerimeter=0;exitX=0.5;exitY=1;exitDx=0;exitDy=0;labelBackgroundColor=#DAD2D8;strokeColor=#A8201A;fontColor=#143642;" parent="1" source="28" target="42" edge="1">
                    <mxGeometry width="50" height="50" relative="1" as="geometry">
                        <mxPoint x="425" y="471" as="sourcePoint"/>
                        <mxPoint x="425" y="380" as="targetPoint"/>
                    </mxGeometry>
                </mxCell>
                <mxCell id="46" value="OVS" style="text;html=1;strokeColor=none;fillColor=none;align=center;verticalAlign=middle;whiteSpace=wrap;fontColor=#143642;" parent="1" vertex="1">
                    <mxGeometry x="364" y="390" width="40" height="20" as="geometry"/>
                </mxCell>
                <mxCell id="42" value="" style="fontColor=#143642;verticalAlign=top;verticalLabelPosition=bottom;labelPosition=center;align=center;html=1;outlineConnect=0;fillColor=#FAE5C7;strokeColor=#0F8B8D;gradientDirection=north;strokeWidth=2;shape=mxgraph.networks.router;" parent="1" vertex="1">
                    <mxGeometry x="364" y="410" width="100" height="30" as="geometry"/>
                </mxCell>
                <mxCell id="47" value="" style="endArrow=none;html=1;exitX=0.5;exitY=0;exitDx=0;exitDy=0;exitPerimeter=0;labelBackgroundColor=#DAD2D8;strokeColor=#A8201A;fontColor=#143642;" parent="1" source="36" target="42" edge="1">
                    <mxGeometry width="50" height="50" relative="1" as="geometry">
                        <mxPoint x="335" y="471" as="sourcePoint"/>
                        <mxPoint x="420" y="380" as="targetPoint"/>
                    </mxGeometry>
                </mxCell>
                <mxCell id="49" value="" style="endArrow=none;html=1;labelBackgroundColor=#DAD2D8;strokeColor=#A8201A;fontColor=#143642;" parent="1" source="42" target="3" edge="1">
                    <mxGeometry width="50" height="50" relative="1" as="geometry">
                        <mxPoint x="345" y="481" as="sourcePoint"/>
                        <mxPoint x="388.804347826087" y="450" as="targetPoint"/>
                    </mxGeometry>
                </mxCell>
            </root>
        </mxGraphModel>
    </diagram>
</mxfile>